<svg xmlns="http://www.w3.org/2000/svg" width="60" height="39" viewBox="0 0 60 39">
  <metadata><?xpacket begin="﻿" id="W5M0MpCehiHzreSzNTczkc9d"?>
<x:xmpmeta xmlns:x="adobe:ns:meta/" x:xmptk="Adobe XMP Core 5.6-c142 79.160924, 2017/07/13-01:06:39        ">
   <rdf:RDF xmlns:rdf="http://www.w3.org/1999/02/22-rdf-syntax-ns#">
      <rdf:Description rdf:about=""/>
   </rdf:RDF>
</x:xmpmeta>
                                                                                                    
                                                                                                    
                                                                                                    
                                                                                                    
                                                                                                    
                                                                                                    
                                                                                                    
                                                                                                    
                                                                                                    
                                                                                                    
                                                                                                    
                                                                                                    
                                                                                                    
                                                                                                    
                                                                                                    
                                                                                                    
                                                                                                    
                                                                                                    
                                                                                                    
                                                                                                    
                           
<?xpacket end="w"?></metadata>
<defs>
    <style>
      .cls-1 {
        fill: #4e9525;
        fill-rule: evenodd;
      }
    </style>
  </defs>
  <path id="Customer" class="cls-1" d="M1330.99,2673.96v-6.61a6.992,6.992,0,0,0-1.27-4.08,14.258,14.258,0,0,0-11.79-6.22,13.957,13.957,0,0,0-6.37,1.48,17.111,17.111,0,0,0-21.14-.01,14.312,14.312,0,0,0-18.15,4.75,7,7,0,0,0-1.28,4.08v6.61a1.021,1.021,0,0,0,.98,1.04h58.02a1,1,0,0,0,1-1.01v-0.03Zm-57.98-6.61a4.96,4.96,0,0,1,.9-2.91,12.312,12.312,0,0,1,14.9-4.45,19.967,19.967,0,0,0-2.15,2.69,7.032,7.032,0,0,0-1.15,3.9v6.4h-12.5v-5.63Zm36.52,5.63h-22.01v-6.39a5.111,5.111,0,0,1,.82-2.79,15.065,15.065,0,0,1,25.3,0,4.949,4.949,0,0,1,.82,2.79v6.39h-4.93Zm19.46,0h-12.51v-6.39a7.1,7.1,0,0,0-1.16-3.9,18.515,18.515,0,0,0-2.15-2.69,12.125,12.125,0,0,1,4.75-.94,12.3,12.3,0,0,1,10.15,5.38,5,5,0,0,1,.91,2.92Zm-19.75-28.71a8.25,8.25,0,1,0-8.25,8.27A8.256,8.256,0,0,0,1309.24,2644.27Zm-14.48,0a6.235,6.235,0,1,1,6.24,6.25h-0.01a6.248,6.248,0,0,1-6.23-6.25h0Zm-3.65,4.84a7.04,7.04,0,1,0-7.05,7.05h0.01A7.053,7.053,0,0,0,1291.11,2649.11Zm-12.08,0a5.035,5.035,0,1,0,.01,0h-0.01Zm45.93,0a7.04,7.04,0,1,0-7.05,7.05h0.01A7.053,7.053,0,0,0,1324.96,2649.11Zm-12.08,0a5.035,5.035,0,1,0,.01,0h-0.01Z" transform="translate(-1271 -2636)"/>
</svg>
