<svg xmlns="http://www.w3.org/2000/svg" width="40" height="41" viewBox="0 0 40 41">
  <metadata><?xpacket begin="﻿" id="W5M0MpCehiHzreSzNTczkc9d"?>
<x:xmpmeta xmlns:x="adobe:ns:meta/" x:xmptk="Adobe XMP Core 5.6-c142 79.160924, 2017/07/13-01:06:39        ">
   <rdf:RDF xmlns:rdf="http://www.w3.org/1999/02/22-rdf-syntax-ns#">
      <rdf:Description rdf:about=""/>
   </rdf:RDF>
</x:xmpmeta>
                                                                                                    
                                                                                                    
                                                                                                    
                                                                                                    
                                                                                                    
                                                                                                    
                                                                                                    
                                                                                                    
                                                                                                    
                                                                                                    
                                                                                                    
                                                                                                    
                                                                                                    
                                                                                                    
                                                                                                    
                                                                                                    
                                                                                                    
                                                                                                    
                                                                                                    
                                                                                                    
                           
<?xpacket end="w"?></metadata>
<defs>
    <style>
      .cls-1 {
        fill: #4e9525;
        fill-rule: evenodd;
      }
    </style>
  </defs>
  <path id="Delivery" class="cls-1" d="M494.99,2644.63v-0.01a0.71,0.71,0,0,0-.071-0.19c-0.007-.02-0.015-0.03-0.024-0.05a0.816,0.816,0,0,0-.12-0.16,0.061,0.061,0,0,0-.007-0.01l-8.036-7.98a0.825,0.825,0,0,0-.578-0.23H463.67a0.842,0.842,0,0,0-.585.24l-7.861,7.98a0.109,0.109,0,0,0-.011.01,0.824,0.824,0,0,0-.113.16,0.423,0.423,0,0,0-.024.04,0.772,0.772,0,0,0-.067.2,0.049,0.049,0,0,0,0,.02,0.714,0.714,0,0,0-.013.13v31.42a0.809,0.809,0,0,0,.815.8h38.381a0.809,0.809,0,0,0,.815-0.8v-31.42A0.846,0.846,0,0,0,494.99,2644.63Zm-19.176-7.02h10l6.417,6.36H475.814v-6.36Zm-11.8,0h10.17v6.36H457.738Zm29.359,37.79H456.624v-29.82h36.749v29.82Zm-18.95-7.35a0.812,0.812,0,0,0,1.153,0l6.356-6.27a0.787,0.787,0,0,0,0-1.13,0.812,0.812,0,0,0-1.153,0l-4.965,4.89v-12.05a0.815,0.815,0,0,0-1.63,0v12.05l-4.965-4.89a0.812,0.812,0,0,0-1.153,0,0.787,0.787,0,0,0,0,1.13Z" transform="translate(-455 -2636)"/>
</svg>
