<svg xmlns="http://www.w3.org/2000/svg" width="35" height="42" viewBox="0 0 35 42">
  <metadata><?xpacket begin="﻿" id="W5M0MpCehiHzreSzNTczkc9d"?>
<x:xmpmeta xmlns:x="adobe:ns:meta/" x:xmptk="Adobe XMP Core 5.6-c142 79.160924, 2017/07/13-01:06:39        ">
   <rdf:RDF xmlns:rdf="http://www.w3.org/1999/02/22-rdf-syntax-ns#">
      <rdf:Description rdf:about=""/>
   </rdf:RDF>
</x:xmpmeta>
                                                                                                    
                                                                                                    
                                                                                                    
                                                                                                    
                                                                                                    
                                                                                                    
                                                                                                    
                                                                                                    
                                                                                                    
                                                                                                    
                                                                                                    
                                                                                                    
                                                                                                    
                                                                                                    
                                                                                                    
                                                                                                    
                                                                                                    
                                                                                                    
                                                                                                    
                                                                                                    
                           
<?xpacket end="w"?></metadata>
<defs>
    <style>
      .cls-ad {
        fill: white;
        fill-rule: evenodd;
      }
    </style>
  </defs>
  <path id="f_address" data-name="f address" class="cls-ad" d="M750.5,7453l-0.7-.41c-0.687-.39-16.8-9.84-16.8-24.03a17.5,17.5,0,1,1,35,0c0,14.19-16.118,23.64-16.8,24.03Zm0-39.2a14.748,14.748,0,0,0-14.7,14.76c0,11.02,11.695,19.24,14.7,21.17,3.007-1.93,14.7-10.17,14.7-21.17A14.748,14.748,0,0,0,750.5,7413.8Zm0,24.11a9.36,9.36,0,1,1,9.326-9.36A9.354,9.354,0,0,1,750.5,7437.91Zm0-15.91a6.55,6.55,0,1,0,6.529,6.55A6.547,6.547,0,0,0,750.5,7422Z" transform="translate(-733 -7411)"/>
</svg>
