<svg xmlns="http://www.w3.org/2000/svg" width="45" height="34" viewBox="0 0 45 34">
  <metadata><?xpacket begin="﻿" id="W5M0MpCehiHzreSzNTczkc9d"?>
<x:xmpmeta xmlns:x="adobe:ns:meta/" x:xmptk="Adobe XMP Core 5.6-c142 79.160924, 2017/07/13-01:06:39        ">
   <rdf:RDF xmlns:rdf="http://www.w3.org/1999/02/22-rdf-syntax-ns#">
      <rdf:Description rdf:about=""/>
   </rdf:RDF>
</x:xmpmeta>
                                                                                                    
                                                                                                    
                                                                                                    
                                                                                                    
                                                                                                    
                                                                                                    
                                                                                                    
                                                                                                    
                                                                                                    
                                                                                                    
                                                                                                    
                                                                                                    
                                                                                                    
                                                                                                    
                                                                                                    
                                                                                                    
                                                                                                    
                                                                                                    
                                                                                                    
                                                                                                    
                           
<?xpacket end="w"?></metadata>
<defs>
    <style>
      .cls-e {
        fill: white;
        fill-rule: evenodd;
      }
    </style>
  </defs>
  <path id="f_email" data-name="f email" class="cls-e" d="M379.218,7435.02a8.592,8.592,0,0,0-1.554,1.85L371.3,7431l-2.719,2.27a1.211,1.211,0,0,1-.777.29,1.119,1.119,0,0,1-.776-0.29l-2.671-2.27-9.661,8.9a1.138,1.138,0,0,1-.826.33,1.216,1.216,0,0,1-.873-0.38,1.157,1.157,0,0,1,.048-1.65l9.467-8.67-9.467-7.86a1.124,1.124,0,0,1-.146-1.65,1.2,1.2,0,0,1,1.7-.14l13.2,10.88,13.206-10.88a1.194,1.194,0,0,1,1.7.14,1.12,1.12,0,0,1-.145,1.65l-9.419,7.82Zm-26.266,7.06a2.509,2.509,0,0,1-2.525-2.46v-19.79a2.5,2.5,0,0,1,2.525-2.46h29.713a2.508,2.508,0,0,1,2.524,2.46v12.73c0.195,0,.34-0.04.534-0.04a8.115,8.115,0,0,1,1.894.19v-12.88a4.914,4.914,0,0,0-4.952-4.83H352.952a4.914,4.914,0,0,0-4.952,4.83v19.79a4.914,4.914,0,0,0,4.952,4.83H376.6a9.7,9.7,0,0,1-.388-2.37H352.952Zm39.52-3.36a8.6,8.6,0,0,1,.34,4.83,2.838,2.838,0,0,1-.68,1.37,2.513,2.513,0,0,1-2.185.71,2.6,2.6,0,0,1-1.8-.81,0.119,0.119,0,0,0-.194,0,3.221,3.221,0,0,1-1.6.71,3.683,3.683,0,0,1-4.419-3.03,3.78,3.78,0,0,1,.243-2.31,3.44,3.44,0,0,1,3.3-2.18,3.394,3.394,0,0,1,2.039.47c0.1,0.05.145,0.05,0.194,0a0.829,0.829,0,0,1,.922-0.14,0.762,0.762,0,0,1,.486.76v3.78a2.777,2.777,0,0,0,.1.62,0.784,0.784,0,0,0,.34.43,1.741,1.741,0,0,0,1.165.09,0.708,0.708,0,0,0,.389-0.43,4.71,4.71,0,0,0,.242-1.13,7.771,7.771,0,0,0-.34-2.99,4.134,4.134,0,0,0-2.864-2.69,7.009,7.009,0,0,0-4.321,0,4.983,4.983,0,0,0-3.5,4.21,5.6,5.6,0,0,0,.583,3.65,5.077,5.077,0,0,0,3.981,2.65,6.055,6.055,0,0,0,3.641-.57,0.833,0.833,0,0,1,1.166.33,0.772,0.772,0,0,1-.34,1.09,7.286,7.286,0,0,1-3.981.85,7.446,7.446,0,0,1-3.35-.99,6.561,6.561,0,0,1-3.156-4.31,7.166,7.166,0,0,1,.874-5.54,6.819,6.819,0,0,1,4.855-3.13,9.052,9.052,0,0,1,4.466.38A5.226,5.226,0,0,1,392.472,7438.72Zm-5.049,2.41a1.393,1.393,0,0,0-.583-1.13,1.677,1.677,0,0,0-.971-0.38,1.923,1.923,0,0,0-2.088.99,2.458,2.458,0,0,0,0,2.32,2.074,2.074,0,0,0,3.253.47,1.186,1.186,0,0,0,.389-0.9v-1.37Z" transform="translate(-348 -7415)"/>
</svg>
