<svg xmlns="http://www.w3.org/2000/svg" width="42" height="42" viewBox="0 0 42 42">
  <metadata><?xpacket begin="﻿" id="W5M0MpCehiHzreSzNTczkc9d"?>
<x:xmpmeta xmlns:x="adobe:ns:meta/" x:xmptk="Adobe XMP Core 5.6-c142 79.160924, 2017/07/13-01:06:39        ">
   <rdf:RDF xmlns:rdf="http://www.w3.org/1999/02/22-rdf-syntax-ns#">
      <rdf:Description rdf:about=""/>
   </rdf:RDF>
</x:xmpmeta>
                                                                                                    
                                                                                                    
                                                                                                    
                                                                                                    
                                                                                                    
                                                                                                    
                                                                                                    
                                                                                                    
                                                                                                    
                                                                                                    
                                                                                                    
                                                                                                    
                                                                                                    
                                                                                                    
                                                                                                    
                                                                                                    
                                                                                                    
                                                                                                    
                                                                                                    
                                                                                                    
                           
<?xpacket end="w"?></metadata>
<defs>
    <style>
      .cls-p {
        fill:white;
        fill-rule: evenodd;
      }
    </style>
  </defs>
  <path id="f_phone" data-name="f phone" class="cls-p" d="M1121.43,7411v2.21a14.333,14.333,0,0,1,14.36,14.35H1138A16.582,16.582,0,0,0,1121.43,7411Zm-17.11,2.85-0.78.77-7.18,7.18-0.36.36,0.03,0.52c0.51,6.4,4.13,13.87,10.27,20.02s13.62,9.74,20.02,10.25l0.5,0.05,0.36-.36,7.18-7.18,0.79-.78-0.79-.79-7.18-7.18-0.78-.78-0.77.78-4.35,4.35a34.714,34.714,0,0,1-13.36-13.34l4.35-4.35,0.8-.78-0.8-.79-7.18-7.18Zm17.11,1.57v2.21a9.912,9.912,0,0,1,9.94,9.93h2.21A12.161,12.161,0,0,0,1121.43,7415.42Zm-17.11,1.55,5.62,5.62-4.19,4.18-0.59.59,0.4,0.72a38.145,38.145,0,0,0,15.34,15.36l0.72,0.4,0.59-.59,4.19-4.19,5.63,5.62-6.01,5.99c-5.61-.59-12.5-3.88-18.17-9.54s-8.94-12.55-9.52-18.17Zm17.11,2.86v2.21a5.508,5.508,0,0,1,5.53,5.52h2.21A7.757,7.757,0,0,0,1121.43,7419.83Z" transform="translate(-1096 -7411)"/>
</svg>
