<svg xmlns="http://www.w3.org/2000/svg" width="23.91" height="16.32" viewBox="0 0 23.91 16.32">
  <metadata><?xpacket begin="﻿" id="W5M0MpCehiHzreSzNTczkc9d"?>
<x:xmpmeta xmlns:x="adobe:ns:meta/" x:xmptk="Adobe XMP Core 5.6-c142 79.160924, 2017/07/13-01:06:39        ">
   <rdf:RDF xmlns:rdf="http://www.w3.org/1999/02/22-rdf-syntax-ns#">
      <rdf:Description rdf:about=""/>
   </rdf:RDF>
</x:xmpmeta>
                                                                                                    
                                                                                                    
                                                                                                    
                                                                                                    
                                                                                                    
                                                                                                    
                                                                                                    
                                                                                                    
                                                                                                    
                                                                                                    
                                                                                                    
                                                                                                    
                                                                                                    
                                                                                                    
                                                                                                    
                                                                                                    
                                                                                                    
                                                                                                    
                                                                                                    
                                                                                                    
                           
<?xpacket end="w"?></metadata>
<defs>
    <style>
      .cls-twitter {
        fill-rule: evenodd;
      }
    </style>
  </defs>
  <path id="twiter" class="cls-twitter" d="M1295.22,7579.03c-1.51.05-1.47,0.05-1.64,0.06l0.89-2.12s-2.78.85-3.49,1a6.466,6.466,0,0,0-6.57-.44,3.621,3.621,0,0,0-2.18,3.91,12.9,12.9,0,0,1-7.86-3.7l-0.66-.66-0.5.76a3.9,3.9,0,0,0-.58,3.07,3.949,3.949,0,0,0,.51,1.2l-0.56-.18-0.07.79a3.682,3.682,0,0,0,.86,2.5,4.617,4.617,0,0,0,.66.69l-0.29-.04,0.36,0.9a4.738,4.738,0,0,0,2.7,2.62c-1.26.45-2.28,0.73-3.95,1.19l-1.54.42,1.42,0.65a16.772,16.772,0,0,0,4.33,1.32c4.19,0.55,8.91.1,12.09-2.29a8.665,8.665,0,0,0,3.37-7.85,1.623,1.623,0,0,1,.42-1.21C1293.53,7580.96,1295.21,7579.03,1295.22,7579.03Zm-3.4,1.89a2.681,2.681,0,0,0-.7,1.97,7.512,7.512,0,0,1-2.91,6.92c-2.47,1.86-6.45,2.59-10.93,2a11.782,11.782,0,0,1-2.34-.58,41.357,41.357,0,0,0,4.24-1.45l2.45-.97-2.71-.14a4.029,4.029,0,0,1-3.03-1.45,5.107,5.107,0,0,0,1.03-.14l2.58-.6-2.6-.53a3.928,3.928,0,0,1-2.36-1.37,3,3,0,0,1-.52-0.95,7.449,7.449,0,0,0,1.06.14l2.4,0.2-1.9-1.24a3.056,3.056,0,0,1-1.52-3.53,15.6,15.6,0,0,0,9.82,3.53,6.5,6.5,0,0,0-.15-0.99,2.526,2.526,0,0,1,1.42-3.21,4.84,4.84,0,0,1,4.93.34,1.424,1.424,0,0,0,1.15.25,8.746,8.746,0,0,0,.95-0.24l-0.61,1.44h0.78C1292.2,7580.49,1292.03,7580.68,1291.82,7580.92Z" transform="translate(-1271.31 -7576.84)"/>
</svg>
