<svg xmlns="http://www.w3.org/2000/svg" width="17" height="20" viewBox="0 0 17 20">
  <metadata><?xpacket begin="﻿" id="W5M0MpCehiHzreSzNTczkc9d"?>
<x:xmpmeta xmlns:x="adobe:ns:meta/" x:xmptk="Adobe XMP Core 5.6-c142 79.160924, 2017/07/13-01:06:39        ">
   <rdf:RDF xmlns:rdf="http://www.w3.org/1999/02/22-rdf-syntax-ns#">
      <rdf:Description rdf:about=""/>
   </rdf:RDF>
</x:xmpmeta>
                                                                                                    
                                                                                                    
                                                                                                    
                                                                                                    
                                                                                                    
                                                                                                    
                                                                                                    
                                                                                                    
                                                                                                    
                                                                                                    
                                                                                                    
                                                                                                    
                                                                                                    
                                                                                                    
                                                                                                    
                                                                                                    
                                                                                                    
                                                                                                    
                                                                                                    
                                                                                                    
                           
<?xpacket end="w"?></metadata>
<defs>
    <style>
      .cls-1 {
        fill: white;
        fill-rule: evenodd;
      }
    </style>
  </defs>
  <path id="add" class="cls-1" d="M460.5,7445l-0.339-.19c-0.333-.19-8.162-4.69-8.162-11.45a8.5,8.5,0,0,1,17,0c0,6.76-7.829,11.26-8.162,11.45Zm0-18.66a7.09,7.09,0,0,0-7.142,7.02c0,5.25,5.68,9.16,7.141,10.08,1.46-.92,7.142-4.84,7.142-10.08A7.09,7.09,0,0,0,460.5,7426.34Zm0,11.47a4.456,4.456,0,1,1,4.529-4.45A4.5,4.5,0,0,1,460.5,7437.81Zm0-7.57a3.12,3.12,0,1,0,3.171,3.12A3.149,3.149,0,0,0,460.5,7430.24Z" transform="translate(-452 -7425)"/>
</svg>
