<svg xmlns="http://www.w3.org/2000/svg" width="19" height="15" viewBox="0 0 19 15">
  <metadata><?xpacket begin="﻿" id="W5M0MpCehiHzreSzNTczkc9d"?>
<x:xmpmeta xmlns:x="adobe:ns:meta/" x:xmptk="Adobe XMP Core 5.6-c142 79.160924, 2017/07/13-01:06:39        ">
   <rdf:RDF xmlns:rdf="http://www.w3.org/1999/02/22-rdf-syntax-ns#">
      <rdf:Description rdf:about=""/>
   </rdf:RDF>
</x:xmpmeta>
                                                                                                    
                                                                                                    
                                                                                                    
                                                                                                    
                                                                                                    
                                                                                                    
                                                                                                    
                                                                                                    
                                                                                                    
                                                                                                    
                                                                                                    
                                                                                                    
                                                                                                    
                                                                                                    
                                                                                                    
                                                                                                    
                                                                                                    
                                                                                                    
                                                                                                    
                                                                                                    
                           
<?xpacket end="w"?></metadata>
<defs>
    <style>
      .cls-mail {
        fill: white;
        fill-rule: evenodd;
      }
    </style>
  </defs>
  <path id="mail" class="cls-mail" d="M465.181,7554.84a3.531,3.531,0,0,0-.656.82l-2.686-2.6-1.148,1.01a0.508,0.508,0,0,1-.327.12,0.471,0.471,0,0,1-.328-0.12l-1.128-1.01-4.079,3.93a0.461,0.461,0,0,1-.349.15,0.493,0.493,0,0,1-.369-0.17,0.53,0.53,0,0,1,.021-0.73l4-3.82-4-3.47a0.514,0.514,0,0,1-.062-0.73,0.492,0.492,0,0,1,.718-0.07l5.576,4.81,5.575-4.81a0.49,0.49,0,0,1,.718.07,0.512,0.512,0,0,1-.062.73l-3.977,3.45Zm-11.09,3.12a1.083,1.083,0,0,1-1.066-1.09v-8.74a1.088,1.088,0,0,1,1.066-1.09h12.545a1.089,1.089,0,0,1,1.066,1.09v5.62c0.082,0,.144-0.02.226-0.02a3.111,3.111,0,0,1,.8.09v-5.69a2.119,2.119,0,0,0-2.091-2.13H454.091a2.119,2.119,0,0,0-2.091,2.13v8.74a2.119,2.119,0,0,0,2.091,2.13h9.983a4.358,4.358,0,0,1-.164-1.04h-9.819Zm16.686-1.49a3.961,3.961,0,0,1,.144,2.13,1.317,1.317,0,0,1-.287.61,1,1,0,0,1-.923.31,1.075,1.075,0,0,1-.758-0.35,0.048,0.048,0,0,0-.082,0,1.31,1.31,0,0,1-.677.31,1.559,1.559,0,0,1-1.865-1.34,1.739,1.739,0,0,1,.1-1.02,1.456,1.456,0,0,1,1.394-.96,1.382,1.382,0,0,1,.861.21,0.062,0.062,0,0,0,.082,0,0.338,0.338,0,0,1,.39-0.07,0.352,0.352,0,0,1,.2.34v1.67a1.12,1.12,0,0,0,.041.27,0.311,0.311,0,0,0,.143.19,0.7,0.7,0,0,0,.492.04,0.286,0.286,0,0,0,.164-0.19,2.068,2.068,0,0,0,.1-0.5,3.512,3.512,0,0,0-.144-1.31,1.8,1.8,0,0,0-1.209-1.2,2.993,2.993,0,0,0-1.825,0,2.2,2.2,0,0,0-1.476,1.87,2.54,2.54,0,0,0,.246,1.6,2.158,2.158,0,0,0,1.681,1.18,2.435,2.435,0,0,0,1.538-.26,0.349,0.349,0,0,1,.492.15,0.346,0.346,0,0,1-.144.48,3.093,3.093,0,0,1-3.095-.06,2.889,2.889,0,0,1-1.333-1.9,3.3,3.3,0,0,1,.369-2.45,2.88,2.88,0,0,1,2.05-1.38,3.678,3.678,0,0,1,1.886.17A2.246,2.246,0,0,1,470.777,7556.47Zm-2.132,1.07a0.615,0.615,0,0,0-.246-0.5,0.683,0.683,0,0,0-.41-0.17,0.8,0.8,0,0,0-.881.44,1.119,1.119,0,0,0,0,1.02,0.855,0.855,0,0,0,1.373.21,0.533,0.533,0,0,0,.164-0.4v-0.6Z" transform="translate(-452 -7546)"/>
</svg>
