<svg xmlns="http://www.w3.org/2000/svg" width="25" height="25" viewBox="0 0 25 25">
  <metadata><?xpacket begin="﻿" id="W5M0MpCehiHzreSzNTczkc9d"?>
<x:xmpmeta xmlns:x="adobe:ns:meta/" x:xmptk="Adobe XMP Core 5.6-c142 79.160924, 2017/07/13-01:06:39        ">
   <rdf:RDF xmlns:rdf="http://www.w3.org/1999/02/22-rdf-syntax-ns#">
      <rdf:Description rdf:about=""/>
   </rdf:RDF>
</x:xmpmeta>
                                                                                                    
                                                                                                    
                                                                                                    
                                                                                                    
                                                                                                    
                                                                                                    
                                                                                                    
                                                                                                    
                                                                                                    
                                                                                                    
                                                                                                    
                                                                                                    
                                                                                                    
                                                                                                    
                                                                                                    
                                                                                                    
                                                                                                    
                                                                                                    
                                                                                                    
                                                                                                    
                           
<?xpacket end="w"?></metadata>
<defs>
    <style>
      .cls-p {
        fill: white;
        fill-rule: evenodd;
      }
    </style>
  </defs>
  <path id="phone" class="cls-p" d="M462.9,7495v0.95a6.145,6.145,0,0,1,6.152,6.15H470A7.1,7.1,0,0,0,462.9,7495Zm-7.337,1.22-0.332.33-3.077,3.08-0.155.15,0.015,0.23a15.733,15.733,0,0,0,12.978,12.97l0.215,0.02,0.155-.16,3.077-3.07,0.34-.34-0.34-.34-3.077-3.07-0.333-.33-0.332.33-1.864,1.86a14.77,14.77,0,0,1-5.724-5.72l1.864-1.86,0.34-.33-0.34-.34-3.077-3.08Zm7.337,0.67v0.95a4.251,4.251,0,0,1,4.259,4.26h0.947A5.217,5.217,0,0,0,462.9,7496.89Zm-7.337.67,2.411,2.41-1.8,1.79-0.251.25,0.17,0.31a16.319,16.319,0,0,0,6.574,6.58l0.311,0.17,0.251-.25,1.8-1.8,2.411,2.41-2.573,2.57A14.773,14.773,0,0,1,453,7500.12Zm7.337,1.23v0.94a2.364,2.364,0,0,1,2.366,2.37h0.947A3.314,3.314,0,0,0,462.9,7498.79Z" transform="translate(-452 -7495)"/>
</svg>
