<svg xmlns="http://www.w3.org/2000/svg" width="18.81" height="17.97" viewBox="0 0 18.81 17.97">
    <style>
      .cls-inst {
         fill-rule: evenodd;
      }
    </style>
  </defs>
  <path id="insta" class="cls-inst" d="M1203.58,7576.09h-8.35a5.023,5.023,0,0,0-5.14,4.91v7.98a5.029,5.029,0,0,0,5.14,4.91h8.35a5.029,5.029,0,0,0,5.14-4.91V7581A5.023,5.023,0,0,0,1203.58,7576.09Zm3.63,12.87a3.568,3.568,0,0,1-3.65,3.49h-8.31a3.568,3.568,0,0,1-3.65-3.49v-7.94a3.568,3.568,0,0,1,3.65-3.49h8.31a3.568,3.568,0,0,1,3.65,3.49v7.94Zm-3.63,5.01h-8.35a5.115,5.115,0,0,1-5.22-4.99V7581a5.115,5.115,0,0,1,5.22-4.99h8.35a5.115,5.115,0,0,1,5.22,4.99v7.98A5.115,5.115,0,0,1,1203.58,7593.97Zm-8.35-17.8a4.95,4.95,0,0,0-5.06,4.83v7.98a4.95,4.95,0,0,0,5.06,4.83h8.35a4.941,4.941,0,0,0,5.05-4.83V7581a4.941,4.941,0,0,0-5.05-4.83h-8.35Zm8.33,16.36h-8.31a3.663,3.663,0,0,1-3.74-3.57v-7.94a3.663,3.663,0,0,1,3.74-3.57h8.31a3.654,3.654,0,0,1,3.73,3.57v7.94A3.654,3.654,0,0,1,1203.56,7592.53Zm-8.31-14.93a3.5,3.5,0,0,0-3.57,3.42v7.94a3.5,3.5,0,0,0,3.57,3.41h8.31a3.5,3.5,0,0,0,3.57-3.41v-7.94a3.5,3.5,0,0,0-3.57-3.42h-8.31Zm4.15,2.7a4.695,4.695,0,1,0,4.91,4.69A4.8,4.8,0,0,0,1199.4,7580.3Zm0,7.75a3.064,3.064,0,1,1,3.21-3.06A3.137,3.137,0,0,1,1199.4,7588.05Zm0,1.71a4.775,4.775,0,1,1,4.99-4.77A4.89,4.89,0,0,1,1199.4,7589.76Zm0-9.38a4.615,4.615,0,1,0,4.83,4.61A4.724,4.724,0,0,0,1199.4,7580.38Zm0,7.75a3.143,3.143,0,1,1,3.29-3.14A3.216,3.216,0,0,1,1199.4,7588.13Zm0-6.12a2.983,2.983,0,1,0,3.12,2.98A3.049,3.049,0,0,0,1199.4,7582.01Zm6.18-1.87a1.1,1.1,0,1,1-1.1-1.05A1.074,1.074,0,0,1,1205.58,7580.14Zm-1.1,1.13a1.131,1.131,0,1,1,1.18-1.13A1.16,1.16,0,0,1,1204.48,7581.27Zm0-2.1a0.971,0.971,0,1,0,1.02.97A1,1,0,0,0,1204.48,7579.17Z" transform="translate(-1190 -7576)"/>
</svg>
