<svg xmlns="http://www.w3.org/2000/svg" width="20.094" height="20.22" viewBox="0 0 20.094 20.22">
<defs>
    <style>
      .cls-te {
      fill:black !important;
      fill-rule: evenodd;
      }
    </style>
  </defs>
  <path id="Telegram" class="clst-te" d="M355.335,4606.68l4.149,1.58,1.606,5.26a0.485,0.485,0,0,0,.775.24l2.313-1.92a0.692,0.692,0,0,1,.841-0.03l4.171,3.09a0.489,0.489,0,0,0,.766-0.3l3.055-14.98a0.494,0.494,0,0,0-.654-0.57l-17.027,6.7A0.5,0.5,0,0,0,355.335,4606.68Zm5.5,0.74,8.108-5.09a0.139,0.139,0,0,1,.17.22l-6.691,6.34a1.467,1.467,0,0,0-.43.85l-0.228,1.72a0.208,0.208,0,0,1-.409.03l-0.877-3.14A0.827,0.827,0,0,1,360.831,4607.42Z" transform="translate(-355.031 -4599.03)"/>
</svg>
