<svg xmlns="http://www.w3.org/2000/svg" width="18.78" height="17.16" viewBox="0 0 18.78 17.16">
  <metadata><?xpacket begin="﻿" id="W5M0MpCehiHzreSzNTczkc9d"?>
<x:xmpmeta xmlns:x="adobe:ns:meta/" x:xmptk="Adobe XMP Core 5.6-c142 79.160924, 2017/07/13-01:06:39        ">
   <rdf:RDF xmlns:rdf="http://www.w3.org/1999/02/22-rdf-syntax-ns#">
      <rdf:Description rdf:about=""/>
   </rdf:RDF>
</x:xmpmeta>
                                                                                                    
                                                                                                    
                                                                                                    
                                                                                                    
                                                                                                    
                                                                                                    
                                                                                                    
                                                                                                    
                                                                                                    
                                                                                                    
                                                                                                    
                                                                                                    
                                                                                                    
                                                                                                    
                                                                                                    
                                                                                                    
                                                                                                    
                                                                                                    
                                                                                                    
                                                                                                    
                           
<?xpacket end="w"?></metadata>
<defs>
    <style>
      .cls-w {
        fill-rule: evenodd;
      }
    </style>
  </defs>
  <path id="whats" class="cls-w" d="M1246.35,7586.25c-0.22-.12-1.35-0.67-1.56-0.74a0.378,0.378,0,0,0-.52.08c-0.17.21-.63,0.67-0.77,0.81a0.4,0.4,0,0,1-.51.03,6.331,6.331,0,0,1-1.83-1.11,6.023,6.023,0,0,1-1.23-1.51,0.285,0.285,0,0,1,.12-0.42c0.11-.1.24-0.24,0.36-0.36a1.718,1.718,0,0,0,.25-0.35,0.351,0.351,0,0,0-.01-0.37c-0.05-.1-0.47-1.16-0.65-1.59a0.44,0.44,0,0,0-.51-0.37c-0.13,0-.29-0.03-0.44-0.03a0.882,0.882,0,0,0-.63.24,2.271,2.271,0,0,0-.89,1.73,3.913,3.913,0,0,0,.86,2.22,9.051,9.051,0,0,0,3.84,3.32c2.33,0.93,2.34.65,2.77,0.63a2.388,2.388,0,0,0,1.61-.95,1.623,1.623,0,0,0,.18-1,1.118,1.118,0,0,0-.44-0.26h0Zm-4.27,5a8.087,8.087,0,0,1-4.17-1.14l-2.92.85,0.95-2.56a6.413,6.413,0,0,1-1.45-4.03c0-3.8,3.41-6.89,7.59-6.89s7.59,3.09,7.59,6.89-3.4,6.88-7.59,6.88h0Zm0-15.16c-5.03,0-9.11,3.71-9.11,8.28a7.684,7.684,0,0,0,1.31,4.27l-1.65,4.44,5.05-1.47a9.7,9.7,0,0,0,4.4,1.03c5.04,0,9.12-3.7,9.12-8.27s-4.08-8.28-9.12-8.28h0Zm-9.57,17.1,1.68-4.54a7.767,7.767,0,0,1-1.3-4.28c0-4.6,4.12-8.35,9.19-8.35s9.19,3.75,9.19,8.35-4.12,8.34-9.19,8.34a9.917,9.917,0,0,1-4.41-1.02Zm9.57-17.03c-4.98,0-9.04,3.68-9.04,8.21a7.606,7.606,0,0,0,1.3,4.23l0.02,0.03-1.61,4.34,4.93-1.43,0.03,0.01a9.748,9.748,0,0,0,4.37,1.02c4.98,0,9.04-3.68,9.04-8.2S1247.06,7576.16,1242.08,7576.16Zm0,15.16a8.162,8.162,0,0,1-4.18-1.13l-3.03.88,0.98-2.65a6.481,6.481,0,0,1-1.43-4.05c0-3.84,3.44-6.96,7.66-6.96s7.67,3.12,7.67,6.96S1246.31,7591.32,1242.08,7591.32Zm-4.16-1.28,0.03,0.02a8.1,8.1,0,0,0,4.13,1.12c4.14,0,7.51-3.05,7.51-6.81s-3.37-6.82-7.51-6.82-7.51,3.06-7.51,6.82a6.376,6.376,0,0,0,1.43,3.99l0.02,0.03-0.91,2.46Zm6.61-1.46a7.117,7.117,0,0,1-2.33-.68,8.881,8.881,0,0,1-3.83-3.29,0.288,0.288,0,0,1-.04-0.06,3.83,3.83,0,0,1-.88-2.26,2.335,2.335,0,0,1,.87-1.74l0.04-.04a0.951,0.951,0,0,1,.69-0.26,1.942,1.942,0,0,1,.24.02c0.07,0,.14.01,0.21,0.01h0.04a0.505,0.505,0,0,1,.53.42c0.06,0.13.14,0.33,0.23,0.55,0.17,0.43.39,0.96,0.42,1.03a0.45,0.45,0,0,1,.01.44l-0.04.05a1,1,0,0,1-.22.3,1.593,1.593,0,0,1-.13.13c-0.08.09-.17,0.17-0.24,0.24-0.13.1-.2,0.18-0.11,0.34a6.853,6.853,0,0,0,1.22,1.49,5.874,5.874,0,0,0,1.66,1.03c0.06,0.03.12,0.05,0.15,0.07a0.306,0.306,0,0,0,.42-0.02c0.16-.16.61-0.6,0.76-0.8a0.47,0.47,0,0,1,.62-0.11c0.22,0.08,1.35.63,1.57,0.74l0.12,0.06a0.872,0.872,0,0,1,.35.23,1.566,1.566,0,0,1-.18,1.06,2.457,2.457,0,0,1-1.67,1,1.108,1.108,0,0,0-.19.02A1.174,1.174,0,0,1,1244.53,7588.58Zm-5.51-8.19a0.8,0.8,0,0,0-.55.22l-0.05.04a2.217,2.217,0,0,0-.81,1.65,3.781,3.781,0,0,0,.84,2.17,0.682,0.682,0,0,1,.05.07,8.686,8.686,0,0,0,3.76,3.23c1.91,0.76,2.24.7,2.53,0.65a0.665,0.665,0,0,1,.21-0.03,2.293,2.293,0,0,0,1.54-.91,1.56,1.56,0,0,0,.18-0.94,0.748,0.748,0,0,0-.28-0.17l-0.12-.06h0c-0.22-.11-1.35-0.66-1.56-0.74a0.3,0.3,0,0,0-.43.06,10.127,10.127,0,0,1-.78.81,0.45,0.45,0,0,1-.6.05,1.164,1.164,0,0,0-.15-0.06,6.415,6.415,0,0,1-1.69-1.06,6.552,6.552,0,0,1-1.25-1.52,0.349,0.349,0,0,1,.14-0.51l0.23-.23a1.593,1.593,0,0,1,.13-0.13,1.35,1.35,0,0,0,.2-0.27l0.03-.06a0.271,0.271,0,0,0-.01-0.31c-0.03-.07-0.23-0.57-0.43-1.05-0.08-.21-0.16-0.41-0.22-0.55-0.14-.33-0.27-0.32-0.38-0.32h-0.06a1.8,1.8,0,0,1-.22-0.02c-0.07,0-.15-0.01-0.23-0.01h-0.02Z" transform="translate(-1232.5 -7576.03)"/>
</svg>
